<?xml version="1.0" standalone="no"?>
<!DOCTYPE svg PUBLIC "-//W3C//DTD SVG 20010904//EN"
 "http://www.w3.org/TR/2001/REC-SVG-20010904/DTD/svg10.dtd">
<svg version="1.0" xmlns="http://www.w3.org/2000/svg"
 width="3000.000000pt" height="3000.000000pt" viewBox="0 0 3000.000000 3000.000000"
 preserveAspectRatio="xMidYMid meet">
<metadata>
Created by potrace 1.14, written by Peter Selinger 2001-2017
</metadata>
<g transform="translate(0.000000,3000.000000) scale(0.100000,-0.100000)"
fill="#000000" stroke="none">
<path d="M0 15000 l0 -15000 15000 0 15000 0 0 15000 0 15000 -15000 0 -15000
0 0 -15000z m16530 12840 c374 -14 746 -36 1105 -66 332 -28 904 -90 913 -99
7 -6 -329 -2050 -338 -2066 -4 -5 -46 -3 -106 6 -766 113 -2109 143 -3189 69
-2395 -162 -4491 -768 -6123 -1771 -958 -588 -1770 -1321 -2407 -2173 -1027
-1374 -1634 -3063 -1824 -5080 -71 -744 -79 -1586 -25 -2385 183 -2711 957
-4927 2297 -6578 389 -481 877 -959 1358 -1334 1496 -1163 3402 -1859 5734
-2092 1014 -102 2136 -112 3328 -32 l247 16 65 -130 c252 -512 644 -830 1136
-921 139 -26 425 -24 580 4 569 104 941 441 1102 1002 49 170 62 270 62 495 0
164 -4 228 -18 292 -60 278 -192 525 -393 733 -371 383 -896 549 -1409 444
-178 -36 -394 -135 -546 -249 -114 -85 -281 -260 -357 -375 -148 -222 -247
-495 -270 -746 l-7 -79 -84 -12 c-253 -36 -642 -71 -1046 -95 -275 -16 -1236
-16 -1510 0 -938 56 -1672 156 -2455 337 -1511 348 -2872 980 -3933 1827 -357
285 -809 716 -1078 1028 -1003 1161 -1664 2532 -2043 4233 -330 1480 -421
3328 -240 4887 205 1771 770 3281 1687 4509 468 626 1076 1221 1727 1688 1390
997 3152 1641 5275 1927 428 58 910 102 1485 137 282 17 1344 23 1700 10 462
-17 1143 -61 1157 -74 4 -5 -347 -1948 -353 -1956 -2 -2 -99 8 -216 22 -926
114 -1812 139 -2613 72 -2493 -209 -4457 -1286 -5772 -3166 -235 -336 -414
-639 -618 -1044 -314 -624 -540 -1230 -710 -1905 -132 -524 -209 -957 -262
-1480 -22 -221 -25 -976 -5 -1220 163 -1931 763 -3595 1756 -4875 300 -387
685 -783 1056 -1086 1125 -920 2559 -1467 4250 -1623 396 -36 511 -41 1085
-41 619 1 810 9 1345 61 1136 109 2412 361 3674 724 77 22 141 39 142 37 2 -2
851 -4462 856 -4496 3 -28 26 -19 -397 -146 -1473 -439 -2961 -714 -4425 -819
-486 -35 -677 -41 -1320 -41 -666 0 -836 6 -1355 46 -3054 234 -5770 1274
-7849 3005 -491 409 -1000 913 -1407 1394 -1594 1885 -2535 4259 -2759 6960
-60 727 -66 1629 -15 2420 263 4073 1848 7223 4675 9285 1189 868 2624 1544
4195 1978 1308 362 2724 567 4200 610 254 8 1044 6 1285 -3z m2680 -255 c315
-49 1083 -189 1097 -199 4 -3 -915 -4517 -921 -4523 -3 -3 -101 15 -218 41
-248 55 -635 133 -861 172 -149 26 -158 29 -153 48 6 26 796 4481 796 4490 0
10 26 7 260 -29z m1690 -330 c212 -49 695 -173 925 -237 128 -36 191 -59 192
-68 3 -16 -1122 -4488 -1131 -4497 -3 -3 -112 27 -243 66 -240 71 -797 225
-859 237 -19 3 -34 12 -34 20 0 13 908 4498 915 4521 3 8 15 9 42 3 21 -5 108
-25 193 -45z m2733 -7681 l2427 -7 0 -898 0 -899 -1325 0 -1325 0 -1 -962 c-1
-530 -6 -2272 -13 -3873 l-11 -2910 -1060 4 c-583 2 -1062 5 -1065 6 -6 3 5
5521 13 6873 l5 872 -376 0 c-207 0 -792 3 -1299 7 l-923 6 0 900 0 900 1263
-7 c694 -3 2354 -9 3690 -12z m-6040 -1 c6 -10 -9 -6662 -18 -8291 l-7 -1243
-1058 3 c-582 2 -1061 6 -1065 9 -6 7 9 6125 21 8302 l7 1227 1058 0 c582 0
1060 -3 1062 -7z m1467 -13733 c627 -66 1083 -619 1029 -1246 -40 -461 -347
-852 -784 -998 -351 -117 -760 -48 -1055 179 -73 56 -197 187 -247 261 -225
331 -265 760 -105 1122 164 373 522 637 922 681 107 12 133 12 240 1z"/>
</g>
</svg>
