<svg id="Layer_1" data-name="Layer 1" xmlns="http://www.w3.org/2000/svg" width="1202.29" height="200.24" viewBox="0 0 1202.29 200.24"><defs><style>.cls-1{fill:#013c95;}.cls-2{fill:#023c95;}.cls-3{fill:#023d95;}.cls-4{fill:#053e96;}.cls-5{fill:#043d96;}</style></defs><path class="cls-1" d="M1117.44,453.61h-29.71V344.37c19.28-1.09,25.74-1.16,29.62,12.69,8.78-9.9,19.22-15.92,32.71-15.62,13.64.3,24.1,5.63,30.3,18.81l3.41-3.82c11.75-13.12,26.52-17.37,43.41-13.92,15.34,3.13,24.9,14.7,25.44,32.73.78,25.95.2,51.94.2,78.32-6.08,0-12.23.52-18.25-.13-7.71-.84-11.47-5.17-11.6-13.14-.28-17.32-.16-34.65-.24-52a46.07,46.07,0,0,0-.46-7c-1.63-10.27-8-14.15-17.93-10.85-8.84,2.92-13.94,9.72-16.25,18.21a86.64,86.64,0,0,0-2.88,20.14c-.41,14.79-.13,29.59-.13,44.69h-30.17v-6.89c0-18.66,0-37.32,0-56a50.29,50.29,0,0,0-.72-8.93c-2.2-11.72-12.61-16.14-22.55-9.34-9.25,6.32-13,16.14-13.57,26.66-.83,16.12-.46,32.3-.59,48.45C1117.43,449.48,1117.44,451.44,1117.44,453.61Z" transform="translate(-50.74 -296.46)"/><path class="cls-2" d="M769.93,351.1c5.58-7.91,11.57-9.46,28.52-7.5v5.28q0,46.49,0,93c0,30.31-15.76,48.87-45.82,53.92-17,2.86-38.43-1-53.11-10,2.61-6.06,4.86-12.46,8-18.36,2.75-5.11,7.59-3.72,12.4-2.85,8.44,1.53,17,3.41,25.53,3.16,14.08-.43,22.16-10.31,21-23-6.06,2.08-12.09,5.29-18.44,6.13-27.78,3.64-49.11-11-55.53-38.41-4.67-19.94-2.71-39.23,10.9-55.67,15.35-18.53,45.42-21.56,64.65-7C768.58,350.17,769.12,350.52,769.93,351.1Zm-47.42,44.15c.51,3.48.76,7,1.56,10.36,2.83,11.84,11.44,18.62,22.82,18.22,10.71-.37,18-6.89,19.64-18.85a63.42,63.42,0,0,0-.21-18.81c-2-11.83-9.17-17.23-21.28-17.33-11.48-.1-18.58,5.56-21.15,17C723.21,388.94,723,392.1,722.51,395.25Z" transform="translate(-50.74 -296.46)"/><path class="cls-2" d="M50.74,453.12v-5.39q0-63.18,0-126.38c0-14.54,5.66-20.3,20.2-20.16,14.13.13,28.33-.2,42.39,1,18.93,1.57,33,13.48,36.16,29.9,2.38,12.36,1.76,26.62-14.88,40.64a10.79,10.79,0,0,0,2.09,1.75c25.75,12.24,27.14,55.8-1.15,71.32a56.29,56.29,0,0,1-26.67,7.29C89.76,453.26,70.62,453.12,50.74,453.12Zm29.39-26c9.81,0,19.1.36,28.35-.1,10.3-.52,17.06-8,17.43-18.24.45-12.46-5.24-20.56-16.14-22-6.07-.77-12.27-.64-18.41-.65-7.55,0-10.9,2.88-11.15,10.33C79.88,406.48,80.13,416.44,80.13,427.15Zm0-64.63c8.21,0,15.85.12,23.48,0,10.43-.19,16.81-7.17,16.87-18.2.06-10.78-6-17.39-16.6-17.79-4.16-.15-8.33-.06-12.49,0-7.9.1-11,2.87-11.21,10.76C79.9,345.4,80.09,353.56,80.09,362.52Z" transform="translate(-50.74 -296.46)"/><path class="cls-1" d="M415.08,301.51c7,0,13.52-.53,19.92.13,7.92.81,11.2,4.94,11.4,13.13.18,7.32,0,14.65,0,22v42.83c7.49,2,10.57.93,14.5-5.14,6-9.21,11.78-18.53,18-27.59a8.41,8.41,0,0,1,5.82-3.23c10.42-.32,20.85-.15,32.32-.15l-34.31,50.79,33.7,59c-10.17,0-20.52.33-30.84-.12-5.91-.26-9.18-4.89-11.77-9.74-5.08-9.53-10.31-19-15.07-28.68-2.46-5-5.67-7.63-12-6.13v45.12H415.08Z" transform="translate(-50.74 -296.46)"/><path class="cls-1" d="M679.92,453.69c-6.57,0-12.74.48-18.79-.11-8.77-.85-12.84-5.76-13.12-15.27-.27-9.16-.09-18.33-.1-27.5,0-8,.07-16,0-24-.13-13.53-7-18.77-20.13-15.34-10.9,2.85-18.5,11.74-19.81,24.31-.83,7.92-.75,15.95-.84,23.93-.13,11.16,0,22.31,0,33.79H575.72V344.33c15.27-4.1,26.19-.3,31.17,11,1.9-1.69,3.61-3.48,5.57-4.92,14.67-10.81,30.67-12.26,47.25-5.57,12,4.83,17.22,15.13,19.15,27.28a92.46,92.46,0,0,1,1,13.92c.11,20.83,0,41.66,0,62.49Z" transform="translate(-50.74 -296.46)"/><path class="cls-2" d="M345.59,455.53c-33.29,0-57.72-24.35-57.52-57.21.21-33.22,24.76-57.34,58.18-57.16,33.2.17,57.5,24.41,57.51,57.34C403.76,431.62,379.33,455.58,345.59,455.53Zm-1.06-87.37a24.09,24.09,0,0,0-20,11.53c-6.53,10.53-6.87,21.76-2.41,33A25.39,25.39,0,0,0,346.4,428.8c11.17-.36,20-6.7,23.91-17.32a36.54,36.54,0,0,0-.51-27.27C365.75,374.35,356.47,368.2,344.53,368.16Z" transform="translate(-50.74 -296.46)"/><path class="cls-2" d="M960.91,398.48c-.06-33,24.29-57.24,57.57-57.32s57.82,24,58,57c.14,33.13-24.07,57.38-57.34,57.41C985.17,455.56,961,431.85,960.91,398.48Zm30.58-.11c.82,4,1.28,8.21,2.54,12.12a25.75,25.75,0,0,0,24.65,18.32c11.43,0,20.94-7,24.73-18.2a36.79,36.79,0,0,0-.1-24.42c-5.09-14.59-19.94-21.62-34.08-16.26C998.65,373.94,992,384.89,991.49,398.37Z" transform="translate(-50.74 -296.46)"/><path class="cls-2" d="M280.34,395.8c1.24,30.2-18.29,57-53.41,59.72C194.37,458,167.87,436,165.11,403.8c-2.91-33.86,19.21-60,54-62.39C251.84,339.18,278.91,361.31,280.34,395.8Zm-84.54,4c.54,2.68,1,7,2.33,11.1a25.87,25.87,0,0,0,49.49-.8,38.78,38.78,0,0,0,.15-22.63c-4.63-15.63-21.29-23.72-35.73-17.06C200.37,375.77,196.56,386.13,195.8,399.77Z" transform="translate(-50.74 -296.46)"/><path class="cls-3" d="M946.4,415c3.24,5.41,7.19,11.75,10.83,18.26a4.5,4.5,0,0,1-.47,4.18c-17,16.34-37.26,22.3-60.16,17.26-21.52-4.74-36.13-17.93-42.22-39.41-11.54-40.67,20.32-78,63-73.42a77.81,77.81,0,0,1,23.2,6.75c8.37,3.76,12.38,11.25,12.23,20.66-.06,4,0,7.95,0,12.32-6.59,0-12.94.65-19-.29-2.87-.43-6.4-3.4-7.63-6.13-2.32-5.12-6.12-6.74-11-7.17-20.87-1.84-35.79,15.45-31.83,36.8,3.45,18.6,22,29.27,40.87,22.49C931.92,424.46,938.81,419.24,946.4,415Z" transform="translate(-50.74 -296.46)"/><path class="cls-4" d="M526.48,343.49c5.46,0,10.61-.24,15.73,0,10.71.59,15.5,5.73,15.53,16.63.07,20.8,0,41.61,0,62.42v30.85H526.48Z" transform="translate(-50.74 -296.46)"/><path class="cls-5" d="M540.74,333.17a18.36,18.36,0,0,1-.36-36.71,18.36,18.36,0,1,1,.36,36.71Z" transform="translate(-50.74 -296.46)"/><path class="cls-5" d="M829.07,455.06a17.85,17.85,0,0,1-18.33-18.16c0-10.65,8-18.88,18.37-18.74a18.68,18.68,0,0,1,18.33,18.54A18.36,18.36,0,0,1,829.07,455.06Z" transform="translate(-50.74 -296.46)"/></svg>