<svg xmlns="http://www.w3.org/2000/svg" xmlns:xlink="http://www.w3.org/1999/xlink" id="Laag_1" x="0" y="0" version="1.1" viewBox="0 0 230.2 56.6" xml:space="preserve" style="enable-background:new 0 0 230.2 56.6"><style type="text/css">.st0{fill:#b7312c}.st1{fill:#fff}</style><g><rect width="42.1" height="42.1" x="179.7" y="7.2" class="st0"/><g><path d="M189.4,32.1c-0.1,0.3-0.4,0.7-0.8,0.7c-0.6,0-1.1-0.5-1.1-0.9c0-0.4,0-0.5,0-0.5l1.9,0.1 C189.5,31.8,189.5,31.9,189.4,32.1 M189.7,30.8l-0.1,0.2l-2.1-0.1l-0.1-0.2h-0.1V32c0,0.6,0.6,1.3,1.4,1.3c0.8,0,1.1-0.8,1.2-1.4 l0.1-1.1L189.7,30.8z" class="st1"/><polygon points="188.1 37 188.5 37.8 188.6 37.8 188.6 37.6 190.5 36.7 190.6 36.8 190.8 36.7 190.4 36 190.3 36 190.3 36.3 188.4 37.1 188.2 37" class="st1"/><path d="M188.8,36.1L188.8,36.1l-0.6,0.2c-0.3-0.2-0.5-0.4-0.6-0.8c-0.2-0.7,0-1.4,0.9-1.7c1-0.3,1.4,0.3,1.6,1.1 c0.1,0.2,0.1,0.4,0.1,0.6l-0.5,0.1l-0.1-0.1c0.2-0.2,0.3-0.5,0.2-0.7c-0.1-0.4-0.6-0.6-1-0.5l0.3,1.2l0.2,0.1v0.1l-0.6,0.1v-0.1 l0.1-0.1l-0.3-1.2c-0.5,0-0.8,0.5-0.7,1C188,35.8,188.4,36.1,188.8,36.1" class="st1"/><path d="M188.3,30.3c-0.1-0.1,0-0.3,0.2-0.4c0.1-0.1,0.3,0,0.4,0.1c0.1,0.2,0,0.3-0.1,0.4 C188.6,30.5,188.4,30.4,188.3,30.3" class="st1"/><path d="M190,38c-0.1-0.2,0-0.3,0.1-0.4c0.1-0.1,0.3,0,0.4,0.2c0.1,0.1,0,0.3-0.1,0.4C190.2,38.2,190.1,38.1,190,38" class="st1"/><path d="M204.7,43.7c-0.1-0.2,0-0.3,0.2-0.4c0.2-0.1,0.3,0,0.4,0.1c0.1,0.2,0,0.3-0.2,0.4 C205,43.9,204.8,43.8,204.7,43.7" class="st1"/><polygon points="188.9 25.5 188.5 26.3 188.6 26.3 188.8 26.2 190.7 27.1 190.6 27.3 190.8 27.4 191.1 26.6 191 26.6 190.9 26.7 189.1 25.7 189 25.5" class="st1"/><polygon points="190.1 29.1 190 29.1 189.9 29.1 188.5 28.8 190.5 28.1 190.7 27.6 190.5 27.6 190.4 27.6 188.5 26.9 188.5 26.7 188.3 26.7 188.1 27.3 188.3 27.4 188.4 27.3 189.8 27.8 187.6 28.6 187.5 29 189.8 29.5 189.9 29.6 190 29.6" class="st1"/><path d="M193.6,42.1c-0.1,0.1-0.4,0.4-0.7,0.4c-0.1,0-0.3,0-0.4-0.2l0,0c-0.1-0.1-0.2-0.2-0.2-0.3 c0-0.3,0.2-0.6,0.4-0.8c0.1-0.1,0.7-0.7,1.1-0.3l0.1,0.1C194.3,41.3,193.7,42,193.6,42.1 M194.4,41.6L194.4,41.6 c0-0.4-0.1-0.7-0.3-0.9l0,0l0,0l0,0l0,0l0,0c-0.3-0.2-0.6-0.3-0.9-0.3c-0.4,0-0.7,0.2-1,0.6c-0.4,0.5-0.4,1.2,0.1,1.6l0,0l0,0l0,0 l0,0c0.5,0.4,1.2,0.4,1.7,0C194.2,42.4,194.4,42,194.4,41.6" class="st1"/><polygon points="197.5 45.2 198.3 45.4 198.4 45.3 198.2 45.1 198.6 43.1 198.8 43.1 198.8 42.9 198 42.7 197.9 42.9 198.1 43 197.7 45 197.5 45.1" class="st1"/><path d="M204.1,44.2L204.1,44.2l0.3,0.5c-0.2,0.3-0.5,0.4-0.8,0.5c-0.7,0.2-1.4,0-1.6-0.9c-0.3-1,0.3-1.4,1.1-1.6 c0.2-0.1,0.4-0.1,0.6-0.1l0.1,0.5l-0.1,0.1c-0.2-0.2-0.5-0.3-0.7-0.2c-0.4,0.1-0.7,0.6-0.5,1l1.2-0.3l0.1-0.2h0.1l0.1,0.6h-0.1 l-0.1-0.1l-1.2,0.3c0,0.5,0.5,0.8,0.9,0.7C203.8,45,204.2,44.6,204.1,44.2" class="st1"/><polygon points="192.5 39.3 192.4 39.3 192.4 39.5 191.4 40.5 191.8 38.4 191.5 38 191.4 38.1 191.4 38.3 189.7 39.4 189.6 39.4 189.4 39.5 189.9 40 190 39.9 190 39.7 191.2 38.9 190.7 41.1 191 41.4 192.6 39.7 192.7 39.7 192.8 39.7" class="st1"/><polygon points="200.8 43.1 200.8 43.2 200.9 43.3 201.1 44.7 199.7 43 199.2 43 199.3 43.1 199.3 43.2 199.2 45.3 199 45.4 199 45.5 199.7 45.5 199.7 45.3 199.6 45.2 199.7 43.8 201.1 45.6 201.4 45.6 201.3 43.3 201.3 43.2 201.3 43.1" class="st1"/><polygon points="193.7 43.6 193.7 43.5 193.9 43.5 195.3 41.9 195.2 41.8 195.3 41.6 195.8 41.8 195.7 43.3 196.6 42.3 196.5 42.3 196.6 42.2 197.2 42.5 197.2 42.6 197.1 42.7 196.8 44.8 197 44.9 196.9 45 196.2 44.7 196.2 44.6 196.4 44.5 196.6 42.9 195.3 44.4 195 44.3 195.2 42.4 194.2 43.7 194.3 43.8 194.2 43.9" class="st1"/><path d="M209.8,40.9L209.8,40.9l0.5,0.4c0,0.4-0.2,0.6-0.5,0.9c-0.6,0.5-1.2,0.7-1.9,0c-0.7-0.8-0.3-1.4,0.2-2 c0.2-0.2,0.3-0.2,0.5-0.4l0.4,0.4l-0.1,0.1c-0.3-0.1-0.5,0-0.8,0.2c-0.3,0.3-0.3,0.8,0,1.1l0.9-0.8v-0.2l0.1-0.1l0.4,0.4l-0.1,0.1 h-0.2l-1,0.9c0.2,0.4,0.8,0.5,1.2,0.1C209.8,41.7,209.9,41.2,209.8,40.9" class="st1"/><path d="M212.8,28.1L212.8,28.1l0.6-0.2c0.3,0.2,0.5,0.4,0.5,0.8c0.2,0.7,0,1.4-0.9,1.7c-1,0.3-1.4-0.3-1.6-1.1 c-0.1-0.2-0.1-0.4-0.1-0.6l0.5-0.1l0.1,0.1c-0.2,0.2-0.3,0.5-0.2,0.7c0.1,0.4,0.6,0.6,1,0.5l-0.3-1.2l-0.2-0.1v-0.1l0.6-0.2v0.1 l-0.1,0.2l0.3,1.2c0.5,0,0.8-0.5,0.7-1C213.5,28.5,213.2,28.2,212.8,28.1" class="st1"/><path d="M211,27.7c-0.2-0.5-0.4-1.2,0.3-1.4c0.5-0.1,0.9,0.4,0.9,0.8L211,27.7z M213.1,26.6l-0.6,0.3 c0-0.5,0.1-1,0.1-1.3c-0.1-0.4-0.2-0.5-0.5-0.8l-0.1,0.1c0.1,0.2,0.1,0.2,0.2,0.4c0.1,0.3,0.1,0.5,0,0.9c-0.2-0.3-0.6-0.5-1-0.4 c-0.5,0.1-0.8,0.7-0.6,1.2l0.5,1.2l0.2-0.1V28l1.9-1l0.1,0.1h0.1L213.1,26.6z" class="st1"/><path d="M211.7,33.1v-2l-0.2-0.5l0.7,0.4c-0.1,0-0.1,0-0.2,0.1c-0.1,0.1-0.1,0.4-0.1,0.8h2.1v-0.1h0.1v0.8H214 l-0.1-0.2h-2.1c0,0.2,0,0.6,0,0.6l0.1,0.1l-0.6,0.4L211.7,33.1z" class="st1"/><polygon points="214 34.9 214.1 34 214 34 213.9 34.2 211.8 33.8 211.8 33.7 211.6 33.7 211.5 34.5 211.6 34.5 211.8 34.3 213.8 34.7 213.8 34.9" class="st1"/><path d="M213,35.4L213,35.4l0.6,0.1c0.1,0.4,0.1,0.7-0.1,1c-0.3,0.7-0.9,1.1-1.8,0.7c-0.9-0.4-0.8-1.2-0.5-1.9 c0.1-0.2,0.2-0.3,0.3-0.6l0.5,0.2V35c-0.3,0-0.5,0.1-0.6,0.4c-0.2,0.4,0.1,0.8,0.5,1.1s1.2,0.2,1.4-0.3 C213.4,36.1,213.3,35.6,213,35.4" class="st1"/><polygon points="212.3 39.1 212.8 38.3 212.7 38.3 212.5 38.4 210.6 37.3 210.6 37.2 210.5 37.1 210.2 37.9 210.3 37.9 210.5 37.8 212.2 38.8 212.3 39" class="st1"/><path d="M210.8,41.1l1.2-1.4l-0.3-0.7l-0.2,0.2c0,0,0.1,0.3,0,0.5c-0.1,0.3-0.5,0.8-0.5,0.8l-1.6-1.3l0.1-0.2 l-0.1-0.1l-0.6,0.7l0.1,0.1l0.2-0.1l1.6,1.3L210.8,41.1L210.8,41.1z" class="st1"/><path d="M206.5,44.4l0.7-0.4l-0.1-0.1h-0.2l-0.5-1c0,0,0.4-0.3,0.7-0.3c0.1,0,0.3,0,0.3,0l-0.2-0.5 c0,0-0.1,0.2-0.2,0.2c-0.2,0.2-0.7,0.4-0.7,0.4L206,42c0,0,0.5-0.3,0.8-0.4c0.1,0,0.3-0.1,0.3-0.1s0-0.1,0-0.2 c0-0.1,0.2-0.3,0.2-0.3l-2,1.2v0.1h0.2l1,1.9V44.4L206.5,44.4z" class="st1"/><path d="M208,25.2l-5.8-0.9c0.1,0.2,0.1,0.4,0.1,0.6c0,0.8-0.7,1.5-1.5,1.5c0,0,0,0-0.1,0l0,0l0,0 c-0.8,0-1.5-0.7-1.5-1.5c0-0.2,0-0.4,0.1-0.6l-5.8,0.9c-0.2-1-0.3-1.9-0.3-2.7c0-0.3,0-0.6,0-0.9h3.5c1,0,1,0.1,1.1,0.1 c0.1,0.1,0.1,0.2,0,0.3c-0.2,0.1-0.5,0.3-0.5,0.8l0,0c0,0.4,0.3,0.5,1.1,0.8c0.2,0.1,1,0.4,1,0.4l0.2-0.1c0.3-0.1,0.9-0.5,0.9-1.2 c0-0.1,0-0.2,0-0.2c0-0.1-0.1-0.2-0.1-0.2l0,0c-0.1-0.2-0.3-0.3-0.3-0.3s0.1-0.3,0.5-0.4l0,0c0,0,0,0,0.1,0l0,0 c0.2,0,0.4,0.2,0.4,0.4c0,0.3-0.2,0.3-0.2,0.7c0,0.7,0.6,1.1,0.9,1.2L202,24c0,0,0.8-0.3,1-0.4c0.8-0.3,1.1-0.5,1.1-0.8l0,0 c0-0.5-0.3-0.6-0.5-0.8c-0.1-0.1-0.1-0.2,0-0.3c0,0,0.1-0.1,1.1-0.1h3.6c0,0.3,0,0.6,0,0.9C208.3,23.3,208.2,24.2,208,25.2 M207.5,27.5L207.5,27.5l-4.9-2.3c1.7,0.3,4.3,0.7,5.3,0.8C207.8,26.5,207.6,27,207.5,27.5 M202.1,26l3.1,1.5h-2.1L202.1,26z M206.5,30.5h-3.7v-2.1h4.5C207,29.1,206.8,29.8,206.5,30.5 M201.2,27.5v-1.2l0.8,1.2H201.2z M199.5,27.5l0.8-1.2v1.2H199.5z M206.1,31.8c-0.2,0.6-0.5,1.2-0.8,1.8h-3h-0.5V40c-0.3,0.5-0.6,0.9-0.9,1.2c-0.1,0.1-0.2,0.2-0.3,0.2c-0.1-0.1-0.2-0.2-0.2-0.2 c-0.2-0.3-0.5-0.7-0.9-1.2v-6.4h-0.4h-2.9c-0.3-0.6-0.5-1.2-0.8-1.8c0-0.1-0.1-0.2-0.1-0.3h4.3v-3h1.1l0,0h1.1v3h4.3 C206.2,31.6,206.1,31.7,206.1,31.8 M202.8,38.5v-4h2.1C204.2,36,203.5,37.4,202.8,38.5 M198.7,38.5c-0.7-1.1-1.4-2.5-2.1-4h2.1 V38.5z M194.3,28.4h4.4v2.1H195C194.7,29.8,194.5,29.1,194.3,28.4 M199.4,26l-1,1.5h-2.1L199.4,26z M194,27.5 c-0.1-0.5-0.2-1-0.3-1.4c1-0.2,3.5-0.6,5.3-0.8L194,27.5z M200.7,20.3L200.7,20.3h7.3c0,0.1,0.1,0.3,0.1,0.4h-3.4 c-1.5,0-2.1,0.4-2.1,1.2c0,0.3,0.1,0.5,0.4,0.7c-0.2,0.1-0.9,0.3-1,0.4c-0.1-0.1-0.2-0.2-0.3-0.5c0.1-0.1,0.2-0.3,0.2-0.7 c0-0.5-0.4-1.1-1.3-1.1c-0.4,0-0.7,0.1-0.9,0.3l0,0c-0.4,0.1-0.6,0.4-0.6,0.7v0.4c0,0,0.2,0,0.3,0.1s0.2,0.1,0.2,0.2 c0.1,0.1,0,0.5-0.2,0.6c-0.1,0-0.8-0.3-1-0.4c0.2-0.2,0.4-0.5,0.4-0.7c0-0.8-0.6-1.2-2.1-1.2h-3.4c0-0.1,0.1-0.3,0.1-0.4H200.7z M196.1,17.2c0-0.3,0.1-0.6,0.9-0.6c0.7,0,0.9,0.1,1,0.2c0.1,0,0.1,0.1,0.1,0.4c0,0,0,1.5,0,2.2H196v-2.2H196.1z M199.8,14.7V15 c-0.5,0.2-1,0.5-1.3,1c-0.3-0.2-0.6-0.2-0.9-0.3C198.2,15.2,199,14.8,199.8,14.7 M199.2,12.9h1.3v-1.3h0.3l0,0h0.3v1.3h1.3v0.6 H201v1.3h-0.3l0,0h-0.3v-1.3h-1.3v-0.6H199.2z M202.5,17.1v2.2h-1.7l0,0h-1.7v-2.2c0-0.6,0.4-1.4,1.7-1.4l0,0 C202,15.7,202.5,16.5,202.5,17.1 M203.9,15.7c-0.3,0-0.6,0.1-0.9,0.3c-0.3-0.5-0.8-0.8-1.3-1v-0.3 C202.6,14.8,203.3,15.2,203.9,15.7 M205.5,17.2v2.1h-2.1v-2.2c0-0.3,0.1-0.3,0.1-0.4c0.1-0.1,0.4-0.2,1-0.2 C205.4,16.6,205.5,16.9,205.5,17.2 M208.8,19.7l-0.1-0.3h-2.3v-2.1c0-0.6-0.3-1.2-1.1-1.5c-0.6-0.7-1.4-1.3-2.2-1.6v-2h-1.3v-1.4 h-1l0,0h-1v1.3h-1.3V14c-0.9,0.4-1.7,0.9-2.2,1.6c-0.8,0.2-1.1,0.9-1.1,1.5v2.2h-2.3l-0.1,0.3c-0.3,0.9-0.4,1.8-0.4,2.8 c0,3.1,1.2,6.8,2.3,9.7c1.7,4.3,4,8.3,5.2,9.6c0.3,0.3,0.5,0.5,0.9,0.5l0,0l0,0l0,0c0.4,0,0.6-0.3,0.9-0.5 c1.2-1.3,3.5-5.2,5.2-9.6c1.1-2.9,2.3-6.6,2.3-9.7C209.2,21.4,209.1,20.5,208.8,19.7" class="st1"/></g></g><g><rect width="2" height="9.6" x="20.7" y="8" class="st0"/><path d="M24.9,10.6h1.9v0.9c0.5-0.7,1.2-1.1,2.2-1.1c1.5,0,2.1,1,2.1,2.3v4.9h-1.9V13c0-0.7-0.2-1.1-0.9-1.1 c-0.6,0-1.2,0.5-1.4,0.9v4.7H25L24.9,10.6L24.9,10.6z" class="st0"/><path d="M32.4,17.1l0.6-1.3c0.3,0.2,1,0.6,1.7,0.6s1.2-0.2,1.2-0.6c0-0.5-0.8-0.6-1.8-1.1s-1.6-1-1.6-2.1 c0-1.3,1-2.1,2.6-2.1c1.2,0,1.9,0.4,2.2,0.6l-0.6,1.2c-0.3-0.2-0.8-0.4-1.5-0.4s-1,0.2-1,0.6c0,0.5,0.6,0.6,1.4,0.9 c1.1,0.5,1.9,1,1.9,2.1c0,1.5-1.1,2.2-2.8,2.2C33.6,17.7,32.8,17.4,32.4,17.1" class="st0"/><path d="M39.4,15.6V12h-1.1v-1.4h1.1v-2h1.9v2H43V12h-1.6v3.2c0,0.7,0.2,1,0.7,1c0.4,0,0.8-0.2,0.9-0.3l0.4,1.4 c-0.3,0.2-0.9,0.4-1.8,0.4C40,17.7,39.4,16.9,39.4,15.6" class="st0"/><path d="M44.7,10.6h1.9v7h-1.9V10.6z M44.5,8.5c0-0.6,0.5-1.1,1.2-1.1s1.2,0.5,1.2,1.1s-0.5,1.2-1.2,1.2 C45,9.6,44.5,9.1,44.5,8.5" class="st0"/><path d="M49,15.6V12h-1.1v-1.4H49v-2h1.9v2h1.6V12h-1.6v3.2c0,0.7,0.2,1,0.7,1c0.4,0,0.8-0.2,0.9-0.3l0.5,1.4 c-0.3,0.2-0.9,0.4-1.8,0.4C49.6,17.7,49,16.9,49,15.6" class="st0"/><path d="M54.1,15.5v-4.9H56v4.5c0,0.7,0.2,1.1,0.9,1.1c0.7,0,1.3-0.7,1.4-0.9v-4.7h1.9v5c0,0.9,0.1,1.6,0.2,2h-1.9 c-0.1-0.2-0.1-0.6-0.1-0.9c-0.4,0.5-1.1,1.1-2.3,1.1C54.7,17.7,54.1,16.7,54.1,15.5" class="st0"/><path d="M62.6,15.6V12h-1.1v-1.4h1.1v-2h1.9v2h1.6V12h-1.6v3.2c0,0.7,0.2,1,0.7,1c0.4,0,0.8-0.2,0.9-0.3l0.4,1.4 c-0.3,0.2-0.9,0.4-1.8,0.4C63.2,17.7,62.6,16.9,62.6,15.6" class="st0"/><path d="M71.8,13.2c0-0.8-0.3-1.4-1.2-1.4c-0.8,0-1.3,0.5-1.4,1.4H71.8z M67.2,14c0-2.2,1.5-3.6,3.5-3.6 s3.1,1.3,3.1,3.5c0,0.2,0,0.4,0,0.7h-4.4c0.1,1,0.6,1.8,1.8,1.8c1,0,1.5-0.3,1.8-0.5l0.6,1.2c-0.5,0.3-1.2,0.7-2.6,0.7 C68.5,17.7,67.2,16.3,67.2,14" class="st0"/><path d="M78.3,12h-1.1v-1.4h1.1V9.8c0-1.7,1-2.8,2.8-2.8c1,0,1.5,0.2,1.7,0.3l-0.4,1.4c-0.1-0.1-0.4-0.2-1-0.2 c-0.8,0-1.1,0.5-1.1,1.4v0.6H82v1.4h-1.7v5.6h-1.9L78.3,12L78.3,12z" class="st0"/><path d="M87.5,14.1c0-1.3-0.5-2.3-1.6-2.3s-1.4,0.9-1.4,2.2s0.4,2.3,1.5,2.3S87.5,15.4,87.5,14.1 M82.5,14.1 c0-1.8,1.1-3.7,3.5-3.7s3.6,1.8,3.6,3.6s-1.1,3.7-3.5,3.7C83.6,17.7,82.5,15.9,82.5,14.1" class="st0"/><path d="M90.9,10.6h1.9v1c0.3-0.5,0.9-1.1,1.8-1.1c0.5,0,0.8,0.1,0.9,0.2L95,12.4c-0.1-0.1-0.3-0.2-0.7-0.2 c-0.8,0-1.4,0.7-1.5,1.1v4.4h-1.9C90.9,17.7,90.9,10.6,90.9,10.6z" class="st0"/><path d="M99,12.8c0-2.6,1.7-5,5-5c1.3,0,2.1,0.3,2.9,0.8l-0.9,1.5c-0.5-0.3-1.1-0.6-2-0.6c-1.8,0-2.8,1.4-2.8,3.2 s0.9,3.3,2.8,3.3c1,0,1.7-0.4,2.2-0.7l0.8,1.4c-0.5,0.4-1.6,1-3,1C100.7,17.7,99,15.4,99,12.8" class="st0"/><path d="M112.7,14.1c0-1.3-0.5-2.3-1.6-2.3s-1.4,0.9-1.4,2.2s0.4,2.3,1.5,2.3S112.7,15.4,112.7,14.1 M107.6,14.1 c0-1.8,1.1-3.7,3.5-3.7s3.6,1.8,3.6,3.6s-1.1,3.7-3.5,3.7C108.7,17.7,107.6,15.9,107.6,14.1" class="st0"/><path d="M116.1,10.6h1.9v0.9c0.4-0.4,1-1,2.1-1c1,0,1.5,0.4,1.8,1.1c0.6-0.7,1.2-1.1,2.2-1.1c1.5,0,2,1,2,2.3v4.9h-1.9 V13c0-0.7-0.2-1.1-0.8-1.1s-1,0.5-1.3,0.8v4.8h-1.9V13c0-0.7-0.2-1.1-0.8-1.1c-0.7,0-1.2,0.7-1.3,0.9v4.7h-1.9v-6.9H116.1z" class="st0"/><path d="M132.5,14.1c0-1.3-0.5-2.1-1.4-2.1c-0.7,0-1.2,0.5-1.3,0.7v3.2c0.2,0.2,0.6,0.5,1.2,0.5 C132,16.3,132.5,15.4,132.5,14.1 M127.9,10.6h1.9v0.7c0.4-0.5,1-0.9,1.9-0.9c1.8,0,2.9,1.3,2.9,3.7c0,2.2-1.3,3.7-3.1,3.7 c-0.9,0-1.4-0.3-1.6-0.5v3.5H128L127.9,10.6L127.9,10.6z" class="st0"/><path d="M135.9,15.5v-4.9h1.9v4.5c0,0.7,0.2,1.1,0.9,1.1s1.3-0.7,1.4-0.9v-4.7h1.9v5c0,0.9,0.1,1.6,0.2,2h-1.9 c-0.1-0.2-0.1-0.6-0.1-0.9c-0.4,0.5-1.1,1.1-2.3,1.1C136.5,17.7,135.9,16.7,135.9,15.5" class="st0"/><path d="M144.4,15.6V12h-1.1v-1.4h1.1v-2h1.9v2h1.6V12h-1.6v3.2c0,0.7,0.2,1,0.7,1c0.4,0,0.8-0.2,0.9-0.3l0.4,1.4 c-0.3,0.2-0.9,0.4-1.8,0.4C145,17.7,144.4,16.9,144.4,15.6" class="st0"/><path d="M149.7,10.6h1.9v7h-1.9V10.6z M149.5,8.5c0-0.6,0.5-1.1,1.2-1.1s1.2,0.5,1.2,1.1s-0.5,1.2-1.2,1.2 C150,9.6,149.5,9.1,149.5,8.5" class="st0"/><path d="M153.6,10.6h1.9v0.9c0.5-0.6,1.2-1.1,2.2-1.1c1.5,0,2.1,1,2.1,2.3v4.9h-1.9V13c0-0.7-0.2-1.1-0.9-1.1 c-0.6,0-1.2,0.5-1.4,0.9v4.7h-1.9v-6.9H153.6z" class="st0"/><path d="M165.6,12.9c0-0.8-0.5-1.3-1.3-1.3s-1.3,0.5-1.3,1.3s0.5,1.3,1.3,1.3C165.1,14.2,165.6,13.7,165.6,12.9 M166.1,18.7c0-0.7-0.7-0.7-1.7-0.8c-0.3,0-0.7,0-1-0.1c-0.4,0.3-0.5,0.6-0.5,1c0,0.6,0.4,1,1.4,1 C165.5,19.7,166.1,19.3,166.1,18.7 M161.1,19.1c0-0.8,0.5-1.3,1.2-1.7c-0.4-0.2-0.6-0.6-0.6-1.1c0-0.6,0.4-1.1,0.8-1.3 c-0.8-0.4-1.2-1.2-1.2-2.1c0-1.5,1.2-2.5,3.1-2.5c0.5,0,0.9,0.1,1.3,0.2h2.5v1.3h-1c0.2,0.3,0.3,0.7,0.3,1.1c0,1.5-1.1,2.5-3,2.5 c-0.3,0-0.6,0-0.8-0.1c-0.2,0.1-0.3,0.2-0.3,0.4c0,0.4,0.4,0.4,1.4,0.5c1.5,0.1,3.3,0.1,3.3,2.2c0,1.5-1.5,2.5-3.8,2.5 C162.2,21,161.1,20.4,161.1,19.1" class="st0"/><path d="M14.5,29.7v-1.3h-0.2c-1.1,0-1.9,0.3-1.9,1.2c0,0.5,0.4,0.7,0.8,0.7C13.8,30.3,14.2,30,14.5,29.7 M10.5,29.7 c0-1.8,1.9-2.5,3.7-2.5h0.2v-0.4c0-0.7-0.3-1-1.1-1s-1.4,0.3-1.8,0.7l-0.7-1.2c0.6-0.5,1.5-1,2.8-1c1.9,0,2.8,0.7,2.8,2.6v2.5 c0,1,0.1,1.6,0.2,2.1h-1.9c-0.1-0.2-0.1-0.5-0.1-0.7c-0.4,0.5-1.1,0.9-2,0.9C11.5,31.7,10.5,31,10.5,29.7" class="st0"/><path d="M18.2,24.5h1.9v0.9c0.5-0.6,1.2-1.1,2.2-1.1c1.5,0,2.1,1,2.1,2.3v4.9h-1.9V27c0-0.7-0.2-1.1-0.9-1.1 c-0.6,0-1.2,0.5-1.4,0.9v4.7h-1.9L18.2,24.5L18.2,24.5z" class="st0"/><path d="M30.5,29.5v-3.2c-0.3-0.3-0.7-0.5-1.2-0.5c-1,0-1.5,0.8-1.5,2.2c0,1.3,0.4,2.1,1.4,2.1 C29.8,30.2,30.2,29.8,30.5,29.5 M25.7,28c0-2.2,1.3-3.7,3.1-3.7c0.7,0,1.3,0.2,1.6,0.5v-3.7h1.9v8.4c0,0.8,0.1,1.5,0.2,2h-1.9 c-0.1-0.2-0.1-0.5-0.1-0.8c-0.5,0.6-1.1,1-2,1C26.9,31.7,25.7,30.4,25.7,28" class="st0"/><rect width="2" height="9.6" x="37.4" y="21.9" class="st0"/><path d="M41.6,24.5h1.9v0.9c0.5-0.6,1.2-1.1,2.2-1.1c1.5,0,2.1,1,2.1,2.3v4.9h-1.9V27c0-0.7-0.2-1.1-0.9-1.1 c-0.6,0-1.2,0.5-1.4,0.9v4.7h-1.9L41.6,24.5L41.6,24.5z" class="st0"/><path d="M50,25.9h-1v-1.4h1v-0.7c0-1.7,1-2.8,2.8-2.8c1,0,1.5,0.2,1.7,0.3L54,22.8c-0.1-0.1-0.4-0.2-1-0.2 c-0.8,0-1.1,0.5-1.1,1.4v0.6h1.7V26h-1.7v5.6H50V25.9z" class="st0"/><path d="M59.2,28c0-1.3-0.5-2.3-1.6-2.3s-1.4,0.9-1.4,2.2c0,1.3,0.4,2.3,1.5,2.3C58.9,30.2,59.2,29.4,59.2,28 M54.2,28 c0-1.8,1.1-3.7,3.5-3.7s3.6,1.8,3.6,3.6c0,1.8-1.1,3.7-3.5,3.7C55.3,31.7,54.2,29.8,54.2,28" class="st0"/><path d="M62.6,24.5h1.9v1c0.3-0.5,0.9-1.1,1.8-1.1c0.5,0,0.8,0.1,1,0.2l-0.5,1.7c-0.1-0.1-0.3-0.2-0.7-0.2 c-0.8,0-1.4,0.7-1.5,1.1v4.4h-1.9v-7.1H62.6z" class="st0"/><path d="M68.3,24.5h1.9v0.9c0.4-0.4,1-1,2.1-1c1,0,1.5,0.4,1.8,1.1c0.6-0.7,1.2-1.1,2.2-1.1c1.5,0,2,1,2,2.3v4.9h-1.9 v-4.5c0-0.7-0.2-1.1-0.8-1.1c-0.6,0-1,0.5-1.3,0.8v4.8h-1.9v-4.5c0-0.7-0.2-1.1-0.8-1.1c-0.7,0-1.2,0.7-1.3,0.9v4.7h-1.9L68.3,24.5 L68.3,24.5z" class="st0"/><path d="M83.6,29.7v-1.3h-0.2c-1.1,0-1.9,0.3-1.9,1.2c0,0.5,0.4,0.7,0.8,0.7C82.9,30.3,83.3,30,83.6,29.7 M79.6,29.7 c0-1.8,1.9-2.5,3.7-2.5h0.2v-0.4c0-0.7-0.3-1-1.1-1c-0.8,0-1.4,0.3-1.8,0.7l-0.8-1.2c0.6-0.5,1.5-1,2.8-1c1.9,0,2.8,0.7,2.8,2.6 v2.5c0,1,0.1,1.6,0.2,2.1h-1.9c-0.1-0.2-0.1-0.5-0.1-0.7c-0.4,0.5-1.1,0.9-2,0.9C80.6,31.7,79.6,31,79.6,29.7" class="st0"/><path d="M87.8,29.5v-3.6h-1.1v-1.4h1.1v-2h1.9v2h1.6v1.4h-1.6v3.2c0,0.7,0.2,1,0.7,1c0.4,0,0.8-0.2,0.9-0.3l0.4,1.4 c-0.3,0.2-0.9,0.4-1.8,0.4C88.4,31.7,87.8,30.8,87.8,29.5" class="st0"/><path d="M93,24.5h1.9v7H93V24.5z M92.8,22.5c0-0.6,0.5-1.1,1.2-1.1s1.2,0.5,1.2,1.1s-0.5,1.2-1.2,1.2 C93.3,23.6,92.8,23.1,92.8,22.5" class="st0"/><path d="M101.5,28c0-1.3-0.5-2.3-1.6-2.3s-1.4,0.9-1.4,2.2c0,1.3,0.4,2.3,1.5,2.3C101.1,30.2,101.5,29.4,101.5,28 M96.4,28c0-1.8,1.1-3.7,3.5-3.7s3.6,1.8,3.6,3.6c0,1.8-1.1,3.7-3.5,3.7C97.5,31.7,96.4,29.8,96.4,28" class="st0"/><path d="M104.9,24.5h1.9v0.9c0.5-0.6,1.2-1.1,2.2-1.1c1.5,0,2.1,1,2.1,2.3v4.9h-1.9V27c0-0.7-0.2-1.1-0.9-1.1 c-0.6,0-1.2,0.5-1.4,0.9v4.7H105v-7H104.9z" class="st0"/><path d="M115.2,30.7l0.8-1.4c0.2,0.2,0.9,0.7,2.1,0.7c1,0,1.5-0.5,1.5-1.1c0-0.9-1-1.1-2.1-1.7 c-1.2-0.6-2.1-1.3-2.1-2.9s1.4-2.7,3.1-2.7c1.6,0,2.4,0.5,2.8,0.8l-0.8,1.4c-0.3-0.2-1.1-0.6-1.9-0.6c-0.8,0-1.3,0.3-1.3,1 s0.8,1,1.8,1.5c1.3,0.6,2.5,1.2,2.5,3c0,1.7-1.3,2.9-3.4,2.9C116.6,31.7,115.6,31.1,115.2,30.7" class="st0"/><path d="M122.6,28c0-2.4,1.6-3.7,3.7-3.7c1.1,0,1.8,0.3,2.1,0.6l-0.6,1.3c-0.3-0.2-0.8-0.4-1.5-0.4 c-1.1,0-1.7,0.9-1.7,2.2c0,1.3,0.6,2.2,1.8,2.2c0.8,0,1.3-0.3,1.5-0.4l0.6,1.3c-0.3,0.2-1,0.6-2.3,0.6 C124,31.7,122.6,30.2,122.6,28" class="st0"/><path d="M129.8,24.5h1.9v7h-1.9V24.5z M129.6,22.5c0-0.6,0.5-1.1,1.2-1.1s1.2,0.5,1.2,1.1s-0.5,1.2-1.2,1.2 S129.6,23.1,129.6,22.5" class="st0"/><path d="M137.9,27.2c0-0.8-0.3-1.4-1.2-1.4c-0.8,0-1.3,0.5-1.4,1.4H137.9z M133.2,28c0-2.2,1.5-3.6,3.5-3.6 s3.1,1.3,3.1,3.5c0,0.2,0,0.4,0,0.7h-4.4c0.1,1,0.6,1.8,1.8,1.8c1,0,1.5-0.3,1.8-0.5l0.6,1.2c-0.5,0.3-1.2,0.7-2.6,0.7 C134.5,31.7,133.2,30.2,133.2,28" class="st0"/><path d="M141.2,24.5h1.9v0.9c0.5-0.6,1.2-1.1,2.2-1.1c1.5,0,2.1,1,2.1,2.3v4.9h-1.9V27c0-0.7-0.2-1.1-0.9-1.1 c-0.6,0-1.2,0.5-1.4,0.9v4.7h-1.9v-7H141.2z" class="st0"/><path d="M148.7,28c0-2.4,1.6-3.7,3.7-3.7c1.1,0,1.8,0.3,2.1,0.6l-0.6,1.3c-0.3-0.2-0.8-0.4-1.5-0.4 c-1.1,0-1.7,0.9-1.7,2.2c0,1.3,0.6,2.2,1.8,2.2c0.8,0,1.3-0.3,1.5-0.4l0.6,1.3c-0.3,0.2-1,0.6-2.3,0.6 C150.1,31.7,148.7,30.2,148.7,28" class="st0"/><path d="M160,27.2c0-0.8-0.3-1.4-1.2-1.4c-0.8,0-1.3,0.5-1.4,1.4H160z M155.3,28c0-2.2,1.5-3.6,3.5-3.6 s3.1,1.3,3.1,3.5c0,0.2,0,0.4,0,0.7h-4.4c0.1,1,0.6,1.8,1.8,1.8c1,0,1.5-0.3,1.8-0.5l0.6,1.2c-0.5,0.3-1.2,0.7-2.6,0.7 C156.6,31.7,155.3,30.2,155.3,28" class="st0"/><path d="M162.7,31l0.6-1.3c0.3,0.2,1,0.6,1.7,0.6s1.2-0.2,1.2-0.6c0-0.5-0.8-0.6-1.8-1.1s-1.6-1-1.6-2.1 c0-1.3,1-2.1,2.6-2.1c1.2,0,1.9,0.4,2.2,0.6l-0.7,1.3c-0.3-0.2-0.8-0.4-1.5-0.4s-1,0.2-1,0.6c0,0.5,0.6,0.6,1.4,0.9 c1.1,0.5,1.9,1,1.9,2.1c0,1.5-1.1,2.2-2.8,2.2C164,31.7,163.2,31.3,162.7,31" class="st0"/><path d="M47.9,39v1.6v0.5v0.4c0,0.3,0,0.3,0.3,0.3c0.8,0,1.3-0.1,1.6-0.3c0.4-0.3,0.6-0.8,0.6-1.3c0-0.7-0.4-1.3-1-1.5 c-0.3-0.1-0.6-0.1-1.1-0.1c-0.3,0-0.3,0-0.3,0.2L47.9,39L47.9,39z M47.9,43.4c0,0.7,0,1.9,0,2.3c0,0.3,0.1,0.4,0.5,0.5 c0.3,0.1,0.3,0.1,0.3,0.3v0.3c0,0.2,0,0.2-0.2,0.2c-0.1,0-0.3,0-0.5,0s-0.6,0-1,0c-0.5,0-0.8,0-1.1,0c-0.2,0-0.4,0-0.5,0 s-0.2-0.1-0.2-0.2v-0.3c0-0.2,0.1-0.2,0.4-0.3c0.4-0.1,0.5-0.2,0.5-0.5c0-0.5,0-1.5,0-2.3v-2.1c0-0.8,0-1.8,0-2.3 c0-0.3-0.1-0.4-0.5-0.5c-0.3-0.1-0.4-0.1-0.4-0.3v-0.3c0-0.2,0-0.2,0.2-0.2c0.1,0,0.3,0,0.5,0s0.5,0,0.9,0c0.7,0,0.7,0,1.9,0 c0.3,0,0.5,0,0.7,0c0.9,0,1.5,0.2,2,0.7c0.4,0.4,0.7,1,0.7,1.6c0,1-0.6,2-1.5,2.2c-0.3,0.1-0.3,0.1-0.3,0.2c0,0,0,0,0.1,0.1 c0.1,0.2,0.2,0.3,0.2,0.4c0.3,0.6,1.2,2.2,1.6,2.8c0.4,0.5,0.5,0.6,0.9,0.7c0.2,0.1,0.3,0.1,0.3,0.3v0.2c0,0.1-0.1,0.2-0.2,0.2 h-0.1c-0.3,0-0.7,0-1.1,0c-0.2,0-0.5,0-0.8,0H51c-0.2,0-0.2,0-0.6-0.8c-0.1-0.3-1-2.2-1.5-3.2c-0.2-0.5-0.3-0.5-0.6-0.5h-0.1 c-0.1,0-0.1,0-0.1,0h-0.2c-0.1,0-0.1,0.1-0.1,0.2L47.9,43.4L47.9,43.4z"/><path d="M57.9,44.3c0-0.2,0-0.2-0.1-0.2h-0.1h-0.1c-0.7,0.1-0.9,0.2-1.2,0.4c-0.4,0.2-0.5,0.5-0.5,0.9s0.3,0.7,0.7,0.7 c0.4,0,0.8-0.2,1.1-0.5c0.2-0.2,0.3-0.4,0.3-0.9v-0.4H57.9z M54.7,41.1c0-0.4,0.1-0.5,0.5-0.6c0.5-0.1,1.2-0.2,1.7-0.2 c1.7,0,2.4,0.6,2.4,1.9v2.4c0,1.3,0,1.3,0.2,1.5c0.1,0.1,0.2,0.1,0.6,0.2c0.3,0,0.3,0.1,0.3,0.2v0.2c0,0.1,0,0.2-0.3,0.2l-1.5,0.3 c-0.1,0-0.2,0-0.3,0c-0.1,0-0.2-0.1-0.2-0.2c0-0.1-0.1-0.4-0.1-0.5c0-0.2,0-0.3-0.1-0.3c0,0-0.1,0-0.1,0.1 c-0.1,0.1-0.6,0.5-0.8,0.6c-0.4,0.2-0.8,0.3-1.3,0.3c-0.8,0-1.5-0.7-1.5-1.7c0-0.4,0.1-1,0.3-1.3c0.1-0.1,0.1-0.2,0.8-0.3l1.7-0.3 c0.7-0.2,0.8-0.2,0.8-0.6v-0.2c0-0.9-0.3-1.2-1.2-1.2c-0.6,0-1.3,0.2-1.8,0.5c-0.1,0.1-0.2,0.1-0.2,0.1c-0.1,0-0.1-0.1-0.1-0.2 v-0.1L54.7,41.1z"/><path d="M62.4,43.6c0,1.5,0.6,2.5,1.5,2.5s1.4-0.8,1.4-2.4c0-0.8-0.1-1.4-0.3-1.7c-0.2-0.5-0.6-0.7-1-0.7 C63.1,41.3,62.4,42.2,62.4,43.6 M66.5,37c0.1,0,0.1,0,0.2,0s0.2,0.1,0.2,0.2l-0.2,4.1v2.4c0,1.7,0,2.2,0.1,2.3 c0.1,0.2,0.2,0.3,0.8,0.4c0.1,0,0.2,0.1,0.2,0.1v0.2c0,0.1,0,0.2-0.3,0.2l-1.6,0.4c-0.1,0-0.2,0-0.2,0c-0.1,0-0.1-0.1-0.1-0.2v-0.6 c0-0.3,0-0.3-0.1-0.3c0,0-0.1,0-0.1,0.1c-0.1,0.1-0.5,0.4-0.7,0.6c-0.4,0.3-0.7,0.4-1.2,0.4c-1.4,0-2.5-1.3-2.5-3.2 c0-2.2,1.2-3.6,3-3.6c0.4,0,1,0.1,1.2,0.3l0.1,0.1c0.1,0,0.1-0.1,0.1-0.2c0,0,0,0,0-0.2v-1.4c0-0.7,0-0.7-0.6-0.8 c-0.2,0-0.3-0.1-0.3-0.3v-0.2c0-0.1,0.1-0.2,0.3-0.2L66.5,37z"/><path d="M70.9,42.5c-0.1,0.4-0.2,0.9-0.2,1.7c0,1,0,1.4,0.1,1.6c0.1,0.3,0.6,0.5,1,0.5c1,0,1.8-1.1,1.8-2.6c0-1.4-0.6-2.3-1.4-2.3 C71.6,41.4,71.1,41.8,70.9,42.5 M69.2,41.1c0-1.1,0-2.5,0-2.7c0-0.3-0.2-0.4-0.5-0.5c-0.3,0-0.4-0.1-0.4-0.2v-0.2 c0-0.1,0.1-0.2,0.2-0.2l1.9-0.3h0.2c0.1,0,0.2,0.1,0.2,0.2c0,0,0,0.1,0,0.2c0,0.3,0,0.7,0,1.8c0,0.8,0,1.4,0,1.8v0.2v0.1 c0,0.1,0,0.1,0.1,0.1s0.2-0.1,0.5-0.5c0.4-0.5,0.7-0.6,1.4-0.6c1.5,0,2.4,1.2,2.4,3.1c0,2.2-1.4,3.7-3.5,3.7 c-0.7,0-1.6-0.2-2.2-0.6c-0.2-0.1-0.2-0.2-0.2-0.4v-0.2c0-1.1,0-2.5,0.1-4.2v-0.6H69.2z"/><path d="M77.7,43.7c0,1.4,0.8,2.5,1.8,2.5c0.9,0,1.6-1,1.6-2.3c0-1.5-0.7-2.6-1.8-2.6C78.4,41.3,77.7,42.3,77.7,43.7 M82.2,41.7 c0.3,0.5,0.5,1.2,0.5,1.9c0,0.9-0.3,1.8-0.8,2.5c-0.6,0.7-1.5,1.1-2.6,1.1c-1.9,0-3.1-1.3-3.1-3.2c0-1,0.3-2,0.9-2.6 c0.6-0.7,1.4-1,2.4-1C80.7,40.3,81.7,40.8,82.2,41.7"/><path d="M89.9,43.6c0,1.2,0,2,0.1,2.2c0.1,0.4,0.2,0.4,0.7,0.5c0.2,0,0.2,0.1,0.2,0.2v0.2c0,0.2,0,0.2-0.2,0.2l-1.8,0.2 c-0.1,0-0.2,0-0.2,0c-0.2,0-0.2,0-0.2-0.9c0-0.2,0-0.3-0.1-0.3c0,0-0.1,0-0.3,0.2c-0.9,0.8-1.1,1-1.8,1c-0.5,0-1-0.1-1.3-0.4 c-0.4-0.3-0.6-0.7-0.6-1.4c0-0.1,0-0.3,0-0.6v-1.9c0-1.6,0-1.7-0.6-1.7c-0.3,0-0.4-0.1-0.4-0.2v-0.2c0-0.2,0-0.2,0.2-0.2l1.9-0.2 c0.1,0,0.2,0,0.2,0c0.1,0,0.1,0.1,0.1,0.2c0,0.1,0,0.2,0,0.3c-0.1,0.6-0.1,1.5-0.1,2.1v1c0,1.2,0,1.4,0.2,1.7 c0.2,0.2,0.4,0.3,0.8,0.3c0.6,0,1.2-0.3,1.4-0.7c0.2-0.3,0.2-0.6,0.2-1.7v-0.6c0-0.5,0-1.2-0.1-1.3c-0.1-0.2-0.2-0.3-0.5-0.4 c-0.3,0-0.4-0.1-0.4-0.2v-0.2c0-0.1,0-0.2,0.2-0.2l1.9-0.2c0.1,0,0.2,0,0.2,0c0.1,0,0.2,0,0.2,0.2v0.3c0,0.3,0,0.3,0,0.9 c0,0.2,0,0.5,0,0.9v0.9H89.9z"/><path d="M93.1,43.6c0,1.5,0.6,2.5,1.5,2.5s1.4-0.8,1.4-2.4c0-0.8-0.1-1.4-0.3-1.7c-0.2-0.4-0.6-0.7-1.1-0.7 C93.7,41.3,93.1,42.2,93.1,43.6 M97.2,37c0.1,0,0.1,0,0.2,0s0.2,0.1,0.2,0.2l-0.1,4.1v2.4c0,1.7,0,2.2,0.1,2.3 c0.1,0.2,0.2,0.3,0.8,0.4c0.1,0,0.2,0.1,0.2,0.1v0.2c0,0.1,0,0.2-0.3,0.2l-1.7,0.3c-0.1,0-0.2,0-0.2,0c-0.1,0-0.1-0.1-0.2-0.2v-0.6 c0-0.3,0-0.3-0.1-0.3c0,0-0.1,0-0.1,0.1c-0.1,0.1-0.5,0.4-0.7,0.6c-0.4,0.3-0.7,0.4-1.2,0.4c-1.4,0-2.5-1.3-2.5-3.2 c0-2.2,1.2-3.6,3-3.6c0.4,0,1,0.1,1.2,0.3l0.1,0.1c0.1,0,0.1-0.1,0.1-0.2c0,0,0,0,0-0.2V39c0-0.7,0-0.7-0.6-0.8 c-0.2,0-0.3-0.1-0.3-0.3v-0.2c0-0.1,0.1-0.2,0.3-0.2L97.2,37z"/><path d="M103.4,41.2c0-0.8,0-1.8,0-2.3c0-0.3-0.1-0.4-0.5-0.5c-0.3-0.1-0.4-0.1-0.4-0.3v-0.3c0-0.2,0-0.2,0.2-0.2 c0.1,0,0.3,0,0.5,0s0.6,0,1,0c0.5,0,0.8,0,1.1,0c0.2,0,0.4,0,0.5,0s0.2,0.1,0.2,0.2v0.3c0,0.2-0.1,0.2-0.3,0.3 c-0.4,0.1-0.5,0.2-0.5,0.5c0,0.4,0,1.6,0,2.3v1.4c0,1.5,0.1,2.1,0.3,2.5c0.4,0.6,1.1,1,2,1c1.1,0,1.9-0.4,2.1-1.3 c0.2-0.5,0.2-0.7,0.2-2.4v-1.3c0-0.8,0-1.8,0-2.3c0-0.3-0.1-0.4-0.5-0.5c-0.3-0.1-0.4-0.1-0.4-0.3v-0.3c0-0.2,0-0.2,0.2-0.2 c0.1,0,0.3,0,0.5,0s0.5,0,0.7,0c0.3,0,0.5,0,0.8,0c0.2,0,0.4,0,0.5,0s0.2,0.1,0.2,0.2V38c0,0.2-0.1,0.2-0.4,0.3 c-0.4,0.1-0.5,0.2-0.5,0.5c0,0.5,0,1.6,0,2.3v1.3c0,1.6,0,2-0.1,2.4c-0.3,1.5-1.6,2.2-3.6,2.2c-1.6,0-2.7-0.5-3.2-1.5 c-0.3-0.6-0.4-1.2-0.4-3.1v-1.2H103.4z"/><path d="M112.1,40.8c0-0.2,0-0.2,0.2-0.3l1.8-0.2c0.1,0,0.2,0,0.2,0c0.1,0,0.2,0.1,0.2,0.3c0,0.1,0,0.7,0,0.8 c0,0.2,0.1,0.3,0.1,0.3s0.1,0,0.1-0.1l0.1-0.1l0.2-0.2c0.6-0.7,0.9-0.8,1.7-0.8c0.9,0,1.6,0.4,1.9,1c0.1,0.3,0.1,0.3,0.1,2.3v0.4 c0,0.8,0,1.6,0,1.8c0,0.3,0.1,0.4,0.5,0.5s0.4,0.1,0.4,0.3V47c0,0.1,0,0.2-0.1,0.2h-0.1c-0.3,0-0.9,0-1.4,0s-1.1,0-1.4,0h-0.1 c-0.1,0-0.1-0.1-0.1-0.2v-0.2c0-0.2,0-0.2,0.4-0.3s0.5-0.2,0.5-0.5s0-1,0-1.8v-0.4c0-0.8,0-1.2-0.1-1.5c-0.1-0.4-0.5-0.6-1-0.6 s-1,0.3-1.3,0.7c-0.2,0.3-0.3,0.6-0.3,1.4v0.3c0,0.8,0,1.5,0,1.8s0.1,0.4,0.5,0.5s0.4,0.1,0.4,0.3v0.2c0,0.1,0,0.2-0.1,0.2h-0.1 c-0.3,0-0.9,0-1.4,0s-1.1,0-1.4,0h-0.1c-0.1,0-0.1-0.1-0.1-0.2v-0.2c0-0.2,0-0.2,0.4-0.3s0.5-0.2,0.5-0.5s0-1,0-1.8v-0.5 c0-0.7-0.1-1.7-0.2-1.9c-0.1-0.2-0.2-0.3-0.6-0.3c-0.3,0-0.4-0.1-0.4-0.2v-0.4H112.1z"/><path d="M123.4,38.4c0,0.5-0.5,1-1,1c-0.6,0-1-0.4-1-1s0.4-1,1.1-1C123,37.5,123.4,37.8,123.4,38.4 M121.8,42.9 c0-1.6,0-1.7-0.6-1.7c-0.3,0-0.4-0.1-0.4-0.2v-0.2c0-0.1,0-0.2,0.2-0.2l1.9-0.2h0.1h0.1c0.1,0,0.2,0.1,0.2,0.3c0,0,0,0,0,0.5 c0,0.2,0,1.5,0,2.2v0.7c0,0.8,0,1.5,0,1.8s0.1,0.4,0.5,0.5s0.4,0.1,0.4,0.3v0.2c0,0.1,0,0.2-0.1,0.2H124c-0.3,0-0.9,0-1.4,0 s-1.1,0-1.4,0H121c-0.1,0-0.1,0-0.1-0.2v-0.2c0-0.2,0-0.2,0.4-0.3s0.5-0.2,0.5-0.5s0-1,0-1.8L121.8,42.9L121.8,42.9z"/><path d="M131.3,40.7c0,0.2,0,0.2-0.2,0.3s-0.2,0.2-0.5,0.8c-0.1,0.4-0.1,0.4-1.3,3.1c-0.4,1-0.5,1.3-0.6,1.5 c-0.1,0.3-0.1,0.3-0.2,0.4c0,0.1-0.1,0.1-0.3,0.1c-0.1,0-0.2,0-0.6,0.1c-0.1,0-0.1,0-0.1,0c-0.1,0-0.1,0-0.3-0.4 c-0.2-0.5-0.3-0.7-0.9-2.4c-0.6-1.7-0.9-2.4-1.1-2.9c-0.1-0.2-0.1-0.2-0.4-0.3c-0.1,0-0.1-0.1-0.1-0.2v-0.2c0-0.1,0.1-0.2,0.2-0.2 c0,0,0,0,0.6,0c0.1,0,0.4,0,0.7,0c0.6,0,1,0,1.4,0h0.2c0.1,0,0.2,0,0.2,0.2v0.2c0,0.2,0,0.2-0.4,0.3s-0.5,0.2-0.5,0.4 c0,0.1,0,0.2,0.1,0.3c0.1,0.2,0.1,0.4,0.2,0.6l0.3,1c0.4,1.3,0.7,2.2,0.7,2.2s0-0.1,0.1-0.1l0.1-0.2l0.1-0.4 c0.1-0.2,0.2-0.5,0.2-0.8l0.4-1c0.4-1.2,0.5-1.5,0.5-1.7s-0.2-0.3-0.5-0.4c-0.2,0-0.2-0.1-0.2-0.2v-0.2c0-0.1,0.1-0.2,0.2-0.2h0.1 c0.2,0,0.7,0,0.9,0s0.5,0,0.8,0h0.1c0.1,0,0.1,0,0.1,0.2V40.7z"/><path d="M133.9,42.6l0.6-0.1c0.2,0,0.9-0.1,1.1-0.1c0.2,0,0.3-0.1,0.3-0.3s-0.1-0.5-0.2-0.7c-0.2-0.2-0.4-0.3-0.8-0.3 c-0.4,0-0.8,0.2-1.1,0.5c-0.2,0.3-0.4,0.6-0.4,0.9c0,0.1,0.1,0.1,0.2,0.1L133.9,42.6z M133.7,43.3c-0.5,0-0.5,0-0.5,0.5 c0,1.3,0.8,2.2,1.9,2.2c0.6,0,1.6-0.3,2-0.7c0,0,0,0,0.1,0l0.1,0.1c0,0.2-0.1,1.1-0.1,1.2c0,0.1-0.2,0.2-0.5,0.3 c-0.5,0.2-1.1,0.3-1.6,0.3c-1.9,0-3.2-1.3-3.2-3.2c0-2.1,1.4-3.6,3.3-3.6c1.5,0,2.4,0.9,2.4,2.5c0,0.4-0.1,0.5-0.6,0.5L133.7,43.3 L133.7,43.3z"/><path d="M138.4,40.9c0-0.2,0-0.2,0.2-0.3l1.9-0.3h0.1c0.1,0,0.1,0,0.1,0c0.1,0,0.2,0.1,0.2,0.2v0.6c0,0.6,0,0.7,0.1,0.7 c0,0,0.2-0.1,0.2-0.2c0.2-0.2,0.2-0.2,0.5-0.6c0.4-0.4,0.5-0.5,0.9-0.6c0.2,0,0.4-0.1,0.6-0.1c0.3,0,0.5,0.1,0.5,0.3l0,0l-0.1,0.9 c0,0.2-0.1,0.3-0.2,0.3h-0.1c-0.2-0.1-0.4-0.1-0.7-0.1c-0.5,0-0.9,0.1-1.1,0.4c-0.3,0.3-0.3,0.6-0.3,1.9v0.6v0.8 c0,0.4,0,0.5,0.2,0.6c0.1,0,0.1,0,0.7,0.2c0.4,0.1,0.4,0.1,0.4,0.3v0.2c0,0.1-0.1,0.2-0.2,0.2h-0.1c-0.4,0-1.4,0-1.9,0 c-0.4,0-1,0-1.4,0h-0.1c-0.1,0-0.1-0.1-0.1-0.2v-0.2c0-0.2,0-0.2,0.4-0.3s0.5-0.2,0.5-0.5s0-0.9,0-1.8v-0.4c0-0.7-0.1-1.4-0.2-1.8 c-0.1-0.3-0.3-0.5-0.7-0.5c-0.3,0-0.3,0-0.3-0.2L138.4,40.9L138.4,40.9z"/><path d="M149,41.7c0,0.2,0,0.2-0.2,0.2h-0.2c-0.1,0-0.1,0-0.3-0.3c-0.1-0.3-0.5-0.5-1.1-0.5s-1,0.3-1,0.9c0,0.4,0.2,0.6,0.7,0.9 c0.3,0.2,0.3,0.2,1.2,0.6c0.8,0.4,1.3,1,1.3,1.8c0,1.2-1.1,2-2.7,2c-0.6,0-1.3-0.1-1.7-0.4c-0.2-0.1-0.2-0.2-0.2-0.4l0.1-0.9 c0-0.2,0.1-0.2,0.2-0.2h0.2c0.1,0,0.2,0,0.2,0.3c0.1,0.5,0.7,0.8,1.3,0.8c0.7,0,1.1-0.4,1.1-0.9c0-0.4-0.2-0.6-0.9-0.9 c-1.7-0.8-2.1-1.2-2.1-2.2c0-1.3,1-2.1,2.6-2.1c0.5,0,1,0.1,1.3,0.2c0.2,0.1,0.3,0.1,0.3,0.3l0,0L149,41.7z"/><path d="M153.1,38.4c0,0.5-0.5,1-1,1c-0.6,0-1-0.4-1-1s0.4-1,1.1-1C152.7,37.5,153.1,37.8,153.1,38.4 M151.5,42.9 c0-1.6,0-1.7-0.6-1.7c-0.3,0-0.4-0.1-0.4-0.2v-0.2c0-0.1,0-0.2,0.2-0.2l1.9-0.2h0.1h0.1c0.1,0,0.2,0.1,0.2,0.3c0,0,0,0,0,0.5 c0,0.2,0,1.5,0,2.2v0.7c0,0.8,0,1.5,0,1.8s0.1,0.4,0.5,0.5s0.4,0.1,0.4,0.3v0.2c0,0.1,0,0.2-0.1,0.2h-0.1c-0.3,0-0.9,0-1.4,0 s-1.1,0-1.4,0h-0.1c-0.1,0-0.1,0-0.1-0.2v-0.2c0-0.2,0-0.2,0.4-0.3s0.5-0.2,0.5-0.5s0-1,0-1.8L151.5,42.9L151.5,42.9z"/><path d="M155.8,42.2c0-0.8,0-0.8-0.3-0.8c-0.1,0-0.1,0-0.2,0H155c-0.1,0-0.2,0-0.2,0c-0.1,0-0.1,0-0.1-0.1c0,0,0-0.1,0-0.2l0.2-0.4 c0.1-0.3,0.1-0.3,0.3-0.3c0,0,0.2,0,0.3,0s0.1,0,0.2,0c0.2,0,0.3-0.1,0.3-0.3c0-0.1,0-0.5,0-0.9c0-0.2,0-0.4,0-0.6 c0-0.3,0.1-0.4,0.4-0.5l0.8-0.3c0.3-0.1,0.3-0.1,0.3-0.1c0.1,0,0.1,0.1,0.1,0.2c0,0.1,0,0.2,0,0.4c0,0.3-0.1,1.4-0.1,1.7 c0,0.2,0.1,0.3,0.4,0.3h1.1c0.3,0,0.5,0,0.7,0h0.1c0.1,0,0.1,0,0.1,0.1s0,0.2-0.2,0.6c-0.1,0.3-0.1,0.3-0.4,0.3c-0.1,0-0.1,0-0.4,0 c-0.1,0-0.2,0-0.5,0s-0.4,0-0.5,0c-0.4,0-0.4,0-0.4,0.6v2c0,1.1,0,1.4,0.2,1.7c0.1,0.2,0.4,0.4,0.8,0.4c0.3,0,0.6-0.1,1.1-0.2 c0.1,0,0.2,0,0.2,0c0.1,0,0.1,0,0.1,0.1c0,0.2-0.1,0.8-0.1,0.9c-0.1,0.1-1,0.3-1.6,0.3c-1.5,0-2-0.4-2-1.6v-0.8c0-0.3,0-0.6,0-0.7 v-1.8H155.8z"/><path d="M167.1,40.7c0,0.1,0,0.2-0.1,0.2c-0.3,0.1-0.3,0.2-0.6,1c-0.1,0.3-0.2,0.7-0.4,1l-0.7,1.8c-0.3,0.7-0.5,1.4-0.8,2.1 c-0.6,1.7-0.7,1.9-1.1,2.2c-0.3,0.3-0.9,0.6-1.4,0.6c-1,0-1.2-0.1-1.2-0.7c0-0.1,0-0.2,0-0.3v-0.2c0-0.1,0-0.2,0.1-0.2h0.1 c0.4,0.1,0.7,0.1,1,0.1c0.7,0,1.2-0.4,1.4-1.1c0-0.1,0.1-0.2,0.1-0.2l0,0c0,0,0-0.1-0.1-0.1c-0.2-0.1-0.2-0.1-0.5-1 c-0.4-1.1-0.9-2.1-1.3-3.2c-0.2-0.4-0.4-0.8-0.5-1.3c-0.1-0.3-0.2-0.4-0.5-0.5c-0.1,0-0.1-0.1-0.1-0.2v-0.2c0-0.1,0.1-0.2,0.2-0.2 h0.1c0.1,0,1.3,0,1.5,0c0.3,0,1,0,1.2,0h0.1c0.1,0,0.2,0.1,0.2,0.2v0.2c0,0.2,0,0.2-0.5,0.3c-0.3,0.1-0.4,0.2-0.4,0.4 c0,0.1,0,0.2,0.1,0.3c0.1,0.2,0.2,0.4,0.2,0.7l0.4,1.1l0.2,0.5c0.1,0.2,0.2,0.6,0.4,0.9c0.1,0.2,0.1,0.3,0.1,0.3 c0.1,0,1.2-3.6,1.2-3.8s-0.1-0.3-0.4-0.4c-0.3-0.1-0.3-0.1-0.3-0.3v-0.2c0-0.1,0-0.2,0.1-0.2h0.1c0.3,0,0.6,0,1,0 c0.3,0,0.5,0,0.8,0h0.1c0.1,0,0.2,0.1,0.2,0.2L167.1,40.7L167.1,40.7z"/></g></svg>